HIERARCHY
ROOT Hips
{
    OFFSET   0.000000   0.000000   0.000000
    CHANNELS 6 Xposition Yposition Zposition Zrotation Xrotation Yrotation
    JOINT Chest
    {
        OFFSET   0.000000   8.007240   0.000000
        CHANNELS 3 Zrotation Xrotation Yrotation
        JOINT Chest2
        {
            OFFSET   0.000000  22.077100   0.000000
            CHANNELS 3 Zrotation Xrotation Yrotation
            JOINT Neck
            {
                OFFSET   0.000000  23.254800   0.000000
                CHANNELS 3 Zrotation Xrotation Yrotation
                JOINT Head
                {
                    OFFSET   0.000000  14.370000   1.956600
                    CHANNELS 3 Zrotation Xrotation Yrotation
                    End Site
                    {
                        OFFSET   0.000000  19.566000   0.000000
                    }
                }
            }
            JOINT LeftCollar
            {
                OFFSET   3.911900  19.017000  -0.467064
                CHANNELS 3 Zrotation Xrotation Yrotation
                JOINT LeftShoulder
                {
                    OFFSET  10.383700   0.000000   0.000000
                    CHANNELS 3 Zrotation Xrotation Yrotation
                    JOINT LeftElbow
                    {
                        OFFSET  26.662100   0.001476   0.000517
                        CHANNELS 3 Zrotation Xrotation Yrotation
                        JOINT LeftWrist
                        {
                            OFFSET  28.869000  -0.000025  -0.000106
                            CHANNELS 3 Zrotation Xrotation Yrotation
                            JOINT LeftFinger0
                            {
                                OFFSET   2.044660  -2.323460   3.252850
                                CHANNELS 3 Zrotation Xrotation Yrotation
                                JOINT LeftFinger01
                                {
                                    OFFSET   3.088130   0.000000   0.000000
                                    CHANNELS 3 Zrotation Xrotation Yrotation
                                    JOINT LeftFinger02
                                    {
                                        OFFSET   2.639460   0.000000   0.000000
                                        CHANNELS 3 Zrotation Xrotation Yrotation
                                        End Site
                                        {
                                            OFFSET   2.582190   0.000000   0.000000
                                        }
                                    }
                                }
                            }
                            JOINT LeftFinger1
                            {
                                OFFSET   8.364480   0.000000   3.252850
                                CHANNELS 3 Zrotation Xrotation Yrotation
                                JOINT LeftFinger11
                                {
                                    OFFSET   4.646930   0.000000   0.000000
                                    CHANNELS 3 Zrotation Xrotation Yrotation
                                    JOINT LeftFinger12
                                    {
                                        OFFSET   2.323460   0.000000   0.000000
                                        CHANNELS 3 Zrotation Xrotation Yrotation
                                        End Site
                                        {
                                            OFFSET   2.273050   0.000000   0.000000
                                        }
                                    }
                                }
                            }
                            JOINT LeftFinger2
                            {
                                OFFSET   8.364490   0.000015   1.078090
                                CHANNELS 3 Zrotation Xrotation Yrotation
                                JOINT LeftFinger21
                                {
                                    OFFSET   5.111620   0.000000   0.000000
                                    CHANNELS 3 Zrotation Xrotation Yrotation
                                    JOINT LeftFinger22
                                    {
                                        OFFSET   2.788160   0.000016   0.000000
                                        CHANNELS 3 Zrotation Xrotation Yrotation
                                        End Site
                                        {
                                            OFFSET   2.727660   0.000000   0.000000
                                        }
                                    }
                                }
                            }
                            JOINT LeftFinger3
                            {
                                OFFSET   7.899780   0.000017  -1.078090
                                CHANNELS 3 Zrotation Xrotation Yrotation
                                JOINT LeftFinger31
                                {
                                    OFFSET   4.646930   0.000000   0.000000
                                    CHANNELS 3 Zrotation Xrotation Yrotation
                                    JOINT LeftFinger32
                                    {
                                        OFFSET   2.323470   0.000000   0.000000
                                        CHANNELS 3 Zrotation Xrotation Yrotation
                                        End Site
                                        {
                                            OFFSET   2.273050   0.000000   0.000000
                                        }
                                    }
                                }
                            }
                            JOINT LeftFinger4
                            {
                                OFFSET   7.435090   0.000000  -3.252850
                                CHANNELS 3 Zrotation Xrotation Yrotation
                                JOINT LeftFinger41
                                {
                                    OFFSET   3.717550   0.000000   0.000000
                                    CHANNELS 3 Zrotation Xrotation Yrotation
                                    JOINT LeftFinger42
                                    {
                                        OFFSET   1.858770   0.000000   0.000000
                                        CHANNELS 3 Zrotation Xrotation Yrotation
                                        End Site
                                        {
                                            OFFSET   1.818440   0.000000   0.000000
                                        }
                                    }
                                }
                            }
                        }
                    }
                }
            }
            JOINT RightCollar
            {
                OFFSET  -3.911900  19.017000  -0.467063
                CHANNELS 3 Zrotation Xrotation Yrotation
                JOINT RightShoulder
                {
                    OFFSET -10.383700   0.000019   0.000000
                    CHANNELS 3 Zrotation Xrotation Yrotation
                    JOINT RightElbow
                    {
                        OFFSET -26.662100   0.001175   0.000102
                        CHANNELS 3 Zrotation Xrotation Yrotation
                        JOINT RightWrist
                        {
                            OFFSET -28.869000   0.000016  -0.000079
                            CHANNELS 3 Zrotation Xrotation Yrotation
                            JOINT RightFinger0
                            {
                                OFFSET  -2.044660  -2.323490   3.252850
                                CHANNELS 3 Zrotation Xrotation Yrotation
                                JOINT RightFinger01
                                {
                                    OFFSET  -3.088140   0.000000   0.000000
                                    CHANNELS 3 Zrotation Xrotation Yrotation
                                    JOINT RightFinger02
                                    {
                                        OFFSET  -2.639460   0.000000   0.000000
                                        CHANNELS 3 Zrotation Xrotation Yrotation
                                        End Site
                                        {
                                            OFFSET  -2.582190   0.000000   0.000000
                                        }
                                    }
                                }
                            }
                            JOINT RightFinger1
                            {
                                OFFSET  -8.364480   0.000000   3.252850
                                CHANNELS 3 Zrotation Xrotation Yrotation
                                JOINT RightFinger11
                                {
                                    OFFSET  -4.646930   0.000000   0.000000
                                    CHANNELS 3 Zrotation Xrotation Yrotation
                                    JOINT RightFinger12
                                    {
                                        OFFSET  -2.323470   0.000000   0.000000
                                        CHANNELS 3 Zrotation Xrotation Yrotation
                                        End Site
                                        {
                                            OFFSET  -2.273050   0.000000   0.000000
                                        }
                                    }
                                }
                            }
                            JOINT RightFinger2
                            {
                                OFFSET  -8.364480   0.000000   1.078090
                                CHANNELS 3 Zrotation Xrotation Yrotation
                                JOINT RightFinger21
                                {
                                    OFFSET  -5.111620   0.000000   0.000000
                                    CHANNELS 3 Zrotation Xrotation Yrotation
                                    JOINT RightFinger22
                                    {
                                        OFFSET  -2.788160   0.000000   0.000000
                                        CHANNELS 3 Zrotation Xrotation Yrotation
                                        End Site
                                        {
                                            OFFSET  -2.727660   0.000000   0.000000
                                        }
                                    }
                                }
                            }
                            JOINT RightFinger3
                            {
                                OFFSET  -7.899780   0.000000  -1.078090
                                CHANNELS 3 Zrotation Xrotation Yrotation
                                JOINT RightFinger31
                                {
                                    OFFSET  -4.646930   0.000000   0.000000
                                    CHANNELS 3 Zrotation Xrotation Yrotation
                                    JOINT RightFinger32
                                    {
                                        OFFSET  -2.323470   0.000000   0.000000
                                        CHANNELS 3 Zrotation Xrotation Yrotation
                                        End Site
                                        {
                                            OFFSET  -2.273050   0.000000   0.000000
                                        }
                                    }
                                }
                            }
                            JOINT RightFinger4
                            {
                                OFFSET  -7.435090   0.000000  -3.252850
                                CHANNELS 3 Zrotation Xrotation Yrotation
                                JOINT RightFinger41
                                {
                                    OFFSET  -3.717550   0.000000   0.000000
                                    CHANNELS 3 Zrotation Xrotation Yrotation
                                    JOINT RightFinger42
                                    {
                                        OFFSET  -1.858770   0.000000   0.000000
                                        CHANNELS 3 Zrotation Xrotation Yrotation
                                        End Site
                                        {
                                            OFFSET  -1.818440   0.000000   0.000000
                                        }
                                    }
                                }
                            }
                        }
                    }
                }
            }
        }
    }
    JOINT LeftHip
    {
        OFFSET   9.783040   0.000000   0.000000
        CHANNELS 3 Zrotation Xrotation Yrotation
        JOINT LeftKnee
        {
            OFFSET   0.000032 -41.789100  -0.002222
            CHANNELS 3 Zrotation Xrotation Yrotation
            JOINT LeftAnkle
            {
                OFFSET   0.000087 -41.133200  -0.000135
                CHANNELS 3 Zrotation Xrotation Yrotation
                JOINT LeftToe
                {
                    OFFSET   0.000000  -6.358960  14.674500
                    CHANNELS 3 Zrotation Xrotation Yrotation
                    End Site
                    {
                        OFFSET   0.000000   0.000000   3.913200
                    }
                }
            }
        }
    }
    JOINT RightHip
    {
        OFFSET  -9.783040   0.000000   0.000000
        CHANNELS 3 Zrotation Xrotation Yrotation
        JOINT RightKnee
        {
            OFFSET   0.000047 -41.789100  -0.000896
            CHANNELS 3 Zrotation Xrotation Yrotation
            JOINT RightAnkle
            {
                OFFSET  -0.000117 -41.133300  -0.000248
                CHANNELS 3 Zrotation Xrotation Yrotation
                JOINT RightToe
                {
                    OFFSET   0.000000  -6.358970  14.674500
                    CHANNELS 3 Zrotation Xrotation Yrotation
                    End Site
                    {
                        OFFSET   0.000000   0.000000   3.913200
                    }
                }
            }
        }
    }
}
MOTION
Frames: 4
Frame Time:   0.016667
-11.187200  88.611800  -1.481230  -7.331180 -15.220900 -21.912900   3.178460   7.758760  -1.639530   6.673860  15.409500  -3.766300   0.785115  -3.340210   0.045864   1.306410  -6.769420  22.133000   4.191240  -7.591790  -4.604070 -49.321900 -38.159200 -111.596000   8.886660 -17.738900 -20.312000   5.418670  -2.576950   0.150394  46.707100  50.759400 -88.040100 -38.841700   0.000160   0.002291 -14.613200   0.002088   0.000417 -86.572900   5.030600  -0.340771 -70.730400   0.009556  -0.029750 -53.047800   0.022029  -0.007789 -79.688100   0.046574  -0.036009 -79.687000   0.009841  -0.029388 -59.765200   0.022660  -0.005034 -83.953400  -5.007980   0.511763 -83.977400   0.014956  -0.030677 -62.982900   0.025298  -0.002743 -88.977900 -10.001400   0.178875 -110.000000  -0.000360  -0.000227 -79.999900   0.001117  -0.001966  -7.091590 -12.848300   3.734340  18.295200 -41.652700  79.081100 -17.525600   2.303330  16.253200 -14.567600   4.288740   5.937300 -23.053000  27.436700  59.968300  62.961100   0.014978  -0.029029  35.237200   0.004584  -0.010800  88.996100   4.996660   0.088321  87.980100  -0.002717  -0.001835  65.985100   0.001590   0.002281  89.000000  -0.000871  -0.004086  99.878800  -0.001350  -0.004163  74.909000  -0.005007  -0.000120  88.996200  -4.999700  -0.087476  99.947700  -0.002070  -0.006566  74.960900   0.000691  -0.001374  88.985900  -9.999430  -0.169037 110.000000  -0.004695   0.001531  80.000000  -0.006603   0.004704   7.738700  20.805300   7.605550   0.421307  14.630800  26.656600 -16.556400  -1.549400   5.675260  -0.000000   0.000000   0.000000   4.891950  14.314200  -3.548640   0.381405   9.732630 -14.649200  -3.454380  -7.316270  17.033200   0.000000   0.000000   0.000000
-11.391900  88.656200  -1.508430  -7.249180 -15.288700 -21.301600   3.155270   7.740820  -1.636700   6.625610  15.374700  -3.757010   0.720820  -3.308400   0.041530   1.195180  -6.705800  21.909400   4.144000  -7.504900  -4.548190 -49.025700 -37.590700 -111.351000   9.095670 -16.770500 -19.754200   5.477660  -1.623850   0.790593  46.088100  50.071400 -86.987300 -38.581500   0.000323   0.002457 -14.420000   0.002068   0.000564 -84.968900   5.103250  -0.503809 -69.531900   0.018424  -0.041843 -52.148900   0.033056  -0.007623 -78.480500   0.131625  -0.066762 -78.477700   0.017501  -0.040353 -58.858200   0.032601  -0.005294 -82.611300  -5.010660   0.617117 -82.640000   0.021901  -0.042020 -61.979900   0.035553  -0.003105 -88.971700 -10.001400   0.178874 -110.000000  -0.000321  -0.000217 -79.999900   0.001206  -0.001937  -7.038910 -12.851700   3.811110  18.334800 -41.220300  79.155500 -17.181700   3.160150  15.983300 -14.187600   4.449430   5.628450 -23.487600  27.136100  60.332500  61.218600   0.021598  -0.039013  34.084800   0.005586  -0.018471  88.996100   4.996740   0.088380  88.078500  -0.002675  -0.002010  66.058800   0.001635   0.002229  89.000000  -0.000926  -0.004114 100.108000  -0.001350  -0.003779  75.080700  -0.004888  -0.000119  88.996200  -4.999730  -0.087483 100.294000  -0.002421  -0.006425  75.220700   0.000475  -0.001433  88.985900  -9.999410  -0.168986 110.000000  -0.004683   0.001499  80.000000  -0.006661   0.004709   7.975380  20.628900   7.409100   0.458444  14.842400  26.391800 -16.667600  -1.704280   5.543000   0.000000   0.000000   0.000000   5.143380  14.868700  -3.742800   0.377185   8.835910 -14.983300  -3.643180  -7.078670  16.861600   0.000000   0.000000   0.000000
-11.586200  88.700400  -1.534160  -7.178890 -15.362900 -20.652200   3.135350   7.731520  -1.642480   6.585750  15.356500  -3.766050   0.657960  -3.279010   0.037547   1.090920  -6.646680  21.691900   4.073210  -7.400120  -4.484800 -48.692200 -36.873900 -111.018000   9.368440 -15.732100 -19.228000   5.520910  -1.197430   1.377100  45.665400  49.363200 -86.026300 -38.160400   0.000473   0.002599 -14.128200   0.002067   0.000712 -83.155500   4.979340  -0.664739 -68.058000   0.023115  -0.051987 -51.043400   0.040837  -0.007420 -77.025000   0.113421  -0.064769 -77.020200   0.022806  -0.052092 -57.765100   0.041904  -0.005575 -80.929500  -4.914360   0.729220 -80.962100   0.028289  -0.054875 -60.721500   0.046145  -0.003477 -89.074300 -10.001400   0.159907 -110.000000  -0.000289  -0.000201 -79.999900   0.001303  -0.001911  -6.965660 -12.818900   3.872350  18.485100 -40.742500  79.269300 -16.772200   3.921730  15.830800 -13.888600   4.569090   5.424880 -24.026100  27.311800  60.931300  59.462600   0.030249  -0.050916  33.119100   0.006376  -0.031915  88.996100   4.996810   0.088433  88.137200  -0.002630  -0.002177  66.102900   0.001683   0.002188  89.000000  -0.000998  -0.004155 100.249000  -0.001329  -0.003407  75.186800  -0.004757  -0.000117  88.996200  -4.999770  -0.087479 100.488000  -0.002778  -0.006268  75.365800   0.000233  -0.001503  88.985900  -9.999400  -0.168947 110.000000  -0.004675   0.001477  80.000000  -0.006721   0.004709   8.250220  20.430900   7.241870   0.492752  15.094500  26.117400 -16.825000  -1.836990   5.283980   0.000000   0.000000   0.000000   5.398540  15.371500  -3.800000   0.411144   8.042080 -15.409900  -3.817620  -6.872410  16.613000  -0.000000   0.000000   0.000000
-11.764600  88.745800  -1.564380  -7.103450 -15.449900 -19.977300   3.116990   7.729940  -1.657070   6.550230  15.353100  -3.792200   0.593342  -3.256360   0.033609   0.983875  -6.601070  21.492500   3.981680  -7.252840  -4.361060 -48.292700 -36.063600 -110.654000   9.653200 -14.773600 -18.700200   5.545400  -0.956903   1.942460  45.338300  48.660300 -85.002100 -37.733900   0.000613   0.002724 -13.850900   0.002067   0.000858 -81.160900   4.640010  -0.781858 -66.419800   0.025077  -0.057683 -49.814800   0.044856  -0.007183 -75.369600  -0.007080  -0.050815 -75.363100   0.025473  -0.059290 -56.522300   0.047358  -0.005879 -78.996300  -4.818010   0.871861 -79.033200   0.031819  -0.062890 -59.274800   0.052569  -0.003861 -89.177000 -10.001400   0.140940 -110.000000  -0.000259  -0.000185 -79.999900   0.001403  -0.001883  -6.853150 -12.762300   3.967980  18.589400 -40.209700  79.330200 -16.322000   4.654280  15.746800 -13.587900   4.730930   5.270920 -24.927400  27.809500  61.847400  57.547100   0.037041  -0.058045  31.982500   0.008538  -0.042122  88.996100   4.996880   0.088487  88.161600  -0.002581  -0.002330  66.121200   0.001725   0.002144  89.000000  -0.001070  -0.004193 100.308000  -0.001292  -0.003041  75.230800  -0.004615  -0.000116  88.996200  -4.999810  -0.087475 100.559000  -0.003130  -0.006099  75.419300  -0.000000  -0.001574  88.985900  -9.999390  -0.168914 110.000000  -0.004664   0.001458  80.000000  -0.006782   0.004710   8.529600  20.219000   7.080030   0.528118  15.378600  25.827000 -16.995200  -1.956740   4.966280  -0.000000   0.000000  -0.000000   5.643210  15.812300  -3.815100   0.455399   7.364130 -15.818100  -3.991690  -6.693800  16.268400   0.000000   0.000000   0.000000
